<svg width="53" height="40" viewBox="0 0 53 40" fill="none" xmlns="http://www.w3.org/2000/svg">
<path d="M10.6476 17.8691C6.50323 21.0347 3.92861 25.4058 3.92861 30.2164V40H6.2214C11.2707 40 14.9811 36.8686 14.9811 33.0129C14.9811 33.0129 15.169 30.7548 15.6091 29.7213C16.751 27.0401 17.3901 26.313 19.463 24.7294C21.5376 23.1458 23.688 22.1354 26.8185 21.7637L35.1396 21.4901C39.9377 21.4901 43.8511 18.5025 43.8511 14.839V12.7386H26.8185C20.5185 12.7386 14.7934 14.7035 10.6476 17.8691Z" fill="#006D5A"/>
<path d="M26.0028 38.5315C26.4549 38.6841 26.9266 38.8085 27.4141 38.9024V39.8614C26.6408 39.7478 25.899 39.5665 25.1995 39.326L26.0028 38.5315Z" fill="#006D5A"/>
<path d="M33.7102 39.2341C33.0952 39.4617 32.4454 39.643 31.7684 39.7719V38.9024C32.213 38.8167 32.6444 38.7056 33.0596 38.5709L33.7102 39.2341Z" fill="#006D5A"/>
<path fill-rule="evenodd" clip-rule="evenodd" d="M30.2983 26.6989L30.9042 26.7815C31.6281 26.8801 32.3146 27.0593 32.9494 27.3069L33.4928 27.5187L34.4956 26.5263L35.6149 27.1859L34.6195 28.171L35.0386 28.5193C35.5317 28.9291 35.9467 29.3935 36.2647 29.8991L36.5269 30.3162L38.0627 30.0096L38.421 31.0542L36.9021 31.3581L36.9572 31.8307C36.9771 32.001 36.9886 32.1704 36.9886 32.3396C36.9886 32.6498 36.9544 32.9551 36.8907 33.2542L36.7937 33.7108L38.2266 34.1141L37.7383 35.1269L36.3221 34.7291L36.0134 35.141C35.7386 35.5077 35.4137 35.8481 35.0435 36.1561L34.6311 36.4993L35.5173 37.4026L34.3855 38.05L33.5069 37.1545L32.9553 37.3699C32.3197 37.6181 31.6303 37.7978 30.9032 37.8976L30.2983 37.9807V39.0892H28.8843V37.9805L28.2792 37.8976C27.5154 37.7929 26.7923 37.5998 26.1296 37.332L25.5824 37.1108L24.6872 37.996L23.5675 37.3359L24.4715 36.4416L24.0664 36.0939C23.5679 35.6663 23.1539 35.1808 22.8426 34.652L22.5876 34.2188L21.1199 34.5125L20.7615 33.4676L22.2495 33.1707L22.2113 32.7092C22.2006 32.5806 22.1932 32.459 22.1932 32.3396C22.1932 31.9822 22.2391 31.6331 22.3232 31.2914L22.4381 30.8251L20.9554 30.4082L21.4441 29.395L22.9438 29.8171L23.2576 29.4203C23.5308 29.0748 23.8538 28.7539 24.2175 28.4598L24.6425 28.1162L23.6649 27.1196L24.7969 26.4723L25.7809 27.476L26.3286 27.2698C26.9356 27.0412 27.5901 26.8752 28.2782 26.7815L28.8843 26.699V25.4326H30.2983V26.6989ZM29.5909 27.4711C27.4066 27.4711 25.4833 28.3238 24.3602 29.617C23.6501 30.3779 23.2323 31.309 23.2323 32.3145C23.2324 34.174 24.6611 35.7784 26.7259 36.5234C27.5847 36.8608 28.5587 37.0513 29.5909 37.0513C33.0556 37.0513 35.864 34.9065 35.864 32.2612C35.864 29.6153 33.0555 27.4711 29.5909 27.4711Z" fill="#006D5A"/>
<path d="M21.7787 35.5411C22.0111 35.8713 22.2781 36.1849 22.5763 36.4793L21.7087 37.3375C21.1876 36.8773 20.7369 36.3693 20.3691 35.8234L21.7787 35.5411Z" fill="#006D5A"/>
<path d="M37.8818 36.3634C37.6526 36.6452 37.4004 36.9149 37.1267 37.1708L36.526 36.5583C36.6787 36.4118 36.8235 36.2604 36.9599 36.1045L37.8818 36.3634Z" fill="#006D5A"/>
<path d="M39.3851 32.0217C39.3898 32.1186 39.3921 32.2159 39.3921 32.3136C39.3921 32.6223 39.3681 32.9267 39.3217 33.2259L38.4191 32.9717C38.4447 32.7639 38.4587 32.553 38.4587 32.3396C38.4587 32.2954 38.4576 32.2513 38.4563 32.2075L39.3851 32.0217Z" fill="#006D5A"/>
<path d="M20.7837 31.5561C20.7453 31.8046 20.7246 32.0575 20.7233 32.3149L19.2669 32.6058C19.2622 32.5088 19.2599 32.4114 19.2599 32.3136C19.2599 31.9213 19.2983 31.5359 19.3726 31.1594L20.7837 31.5561Z" fill="#006D5A"/>
<path d="M37.1632 27.4913C37.5924 27.8973 37.9687 28.3372 38.2838 28.8052L37.3063 29.0002C37.0761 28.6911 36.8151 28.3975 36.5265 28.1214L37.1632 27.4913Z" fill="#006D5A"/>
<path d="M22.7364 28.0457C22.596 28.1759 22.4617 28.3105 22.3338 28.4491L20.944 28.058C21.2216 27.74 21.5292 27.4385 21.8641 27.1563L22.7364 28.0457Z" fill="#006D5A"/>
<path d="M31.7684 24.8565C32.4648 24.989 33.1322 25.1773 33.7627 25.4141L33.061 26.1083C32.6454 25.9732 32.2137 25.8617 31.7684 25.776V24.8565Z" fill="#006D5A"/>
<path d="M27.4141 25.7758C27.011 25.8534 26.6185 25.9518 26.2392 26.0701L25.4158 25.2303C26.0512 25.0255 26.7201 24.8692 27.4141 24.7673V25.7758Z" fill="#006D5A"/>
<path d="M29.8195 35.7715C29.1059 36.0128 28.3317 36.0104 27.6563 35.8113C26.9815 35.6124 26.4061 35.2169 26.0901 34.672L25.6492 33.9128L25.8485 33.8454C26.3974 33.6598 27.0397 33.8491 27.2828 34.2682C27.4535 34.5617 27.7627 34.775 28.1262 34.8821C28.4902 34.9895 28.9069 34.9902 29.2916 34.8605C29.6757 34.7306 29.9546 34.4939 30.0949 34.2163C30.2353 33.9388 30.2371 33.6203 30.0669 33.327L28.922 31.3531C28.6302 30.8499 28.9279 30.2611 29.5868 30.0383L31.2597 32.9233C31.8923 34.0132 31.2474 35.2886 29.8195 35.7715Z" fill="#006D5A"/>
<path d="M32.562 29.9571L33.0023 30.7162L32.8034 30.7835C32.2543 30.9692 31.612 30.7798 31.3689 30.3605C31.0284 29.7735 30.1292 29.5084 29.3605 29.7684C28.5918 30.0284 28.2446 30.715 28.585 31.302L29.7299 33.2759C30.0217 33.779 29.7241 34.3675 29.0652 34.5904L27.3919 31.7055C26.7597 30.6154 27.4044 29.3402 28.8321 28.8574C30.2598 28.3746 31.9297 28.8669 32.562 29.9571Z" fill="#006D5A"/>
<path d="M43.79 0C48.5876 0 52.5 2.98919 52.5 6.65107V8.75299H22.7353C18.427 8.753 12.1818 11.0561 9.13883 13.256C4.6804 16.4793 0.511117 22.7412 0.5 22.7579L0.756977 10.099C0.756977 8.01062 2.547 5.33921 5.38257 3.30204C8.5113 1.05425 11.4505 0 15.7295 0H43.79Z" fill="#006D5A"/>
<path d="M26.0028 38.5315C26.4549 38.6841 26.9266 38.8085 27.4141 38.9024V39.8614C26.6408 39.7478 25.899 39.5665 25.1995 39.326L26.0028 38.5315Z" fill="#006D5A"/>
<path d="M33.7102 39.2341C33.0952 39.4617 32.4454 39.643 31.7684 39.7719V38.9024C32.213 38.8167 32.6444 38.7056 33.0596 38.5709L33.7102 39.2341Z" fill="#006D5A"/>
<path fill-rule="evenodd" clip-rule="evenodd" d="M30.2983 26.6989L30.9042 26.7815C31.6281 26.8801 32.3146 27.0593 32.9494 27.3069L33.4928 27.5187L34.4956 26.5263L35.6149 27.1859L34.6195 28.171L35.0386 28.5193C35.5317 28.9291 35.9467 29.3935 36.2647 29.8991L36.5269 30.3162L38.0627 30.0096L38.421 31.0542L36.9021 31.3581L36.9572 31.8307C36.9771 32.001 36.9886 32.1704 36.9886 32.3396C36.9886 32.6498 36.9544 32.9551 36.8907 33.2542L36.7937 33.7108L38.2266 34.1141L37.7383 35.1269L36.3221 34.7291L36.0134 35.141C35.7386 35.5077 35.4137 35.8481 35.0435 36.1561L34.6311 36.4993L35.5173 37.4026L34.3855 38.05L33.5069 37.1545L32.9553 37.3699C32.3197 37.6181 31.6303 37.7978 30.9032 37.8976L30.2983 37.9807V39.0892H28.8843V37.9805L28.2792 37.8976C27.5154 37.7929 26.7923 37.5998 26.1296 37.332L25.5824 37.1108L24.6872 37.996L23.5675 37.3359L24.4715 36.4416L24.0664 36.0939C23.5679 35.6663 23.1539 35.1808 22.8426 34.652L22.5876 34.2188L21.1199 34.5125L20.7615 33.4676L22.2495 33.1707L22.2113 32.7092C22.2006 32.5806 22.1932 32.459 22.1932 32.3396C22.1932 31.9822 22.2391 31.6331 22.3232 31.2914L22.4381 30.8251L20.9554 30.4082L21.4441 29.395L22.9438 29.8171L23.2576 29.4203C23.5308 29.0748 23.8538 28.7539 24.2175 28.4598L24.6425 28.1162L23.6649 27.1196L24.7969 26.4723L25.7809 27.476L26.3286 27.2698C26.9356 27.0412 27.5901 26.8752 28.2782 26.7815L28.8843 26.699V25.4326H30.2983V26.6989ZM29.5909 27.4711C27.4065 27.4711 25.4832 28.3239 24.3601 29.6172C23.65 30.378 23.2323 31.309 23.2323 32.3145C23.2324 34.1749 24.6624 35.7801 26.7287 36.5246C27.5868 36.8613 28.5599 37.0513 29.5909 37.0513C33.0556 37.0513 35.864 34.9065 35.864 32.2612C35.864 29.6153 33.0555 27.4711 29.5909 27.4711Z" fill="#006D5A"/>
<path d="M21.7787 35.5411C22.0111 35.8713 22.2781 36.1849 22.5763 36.4793L21.7087 37.3375C21.1876 36.8773 20.7369 36.3693 20.3691 35.8234L21.7787 35.5411Z" fill="#006D5A"/>
<path d="M37.8818 36.3634C37.6526 36.6452 37.4004 36.9149 37.1267 37.1708L36.526 36.5583C36.6787 36.4118 36.8235 36.2604 36.9599 36.1045L37.8818 36.3634Z" fill="#006D5A"/>
<path d="M39.3851 32.0217C39.3898 32.1186 39.3921 32.2159 39.3921 32.3136C39.3921 32.6223 39.3681 32.9267 39.3217 33.2259L38.4191 32.9717C38.4447 32.7639 38.4587 32.553 38.4587 32.3396C38.4587 32.2954 38.4576 32.2513 38.4563 32.2075L39.3851 32.0217Z" fill="#006D5A"/>
<path d="M20.7837 31.5561C20.7453 31.8046 20.7246 32.0575 20.7233 32.3149L19.2669 32.6058C19.2622 32.5088 19.2599 32.4114 19.2599 32.3136C19.2599 31.9213 19.2983 31.5359 19.3726 31.1594L20.7837 31.5561Z" fill="#006D5A"/>
<path d="M37.1632 27.4913C37.5924 27.8973 37.9688 28.3371 38.2839 28.805L37.3063 29.0002C37.0761 28.6911 36.8151 28.3975 36.5265 28.1214L37.1632 27.4913Z" fill="#006D5A"/>
<path d="M22.7364 28.0457C22.596 28.1759 22.4617 28.3105 22.3338 28.4491L20.944 28.058C21.2216 27.74 21.5292 27.4385 21.8641 27.1563L22.7364 28.0457Z" fill="#006D5A"/>
<path d="M31.7684 24.8565C32.4648 24.989 33.1322 25.1773 33.7627 25.4141L33.061 26.1083C32.6454 25.9732 32.2137 25.8617 31.7684 25.776V24.8565Z" fill="#006D5A"/>
<path d="M27.4141 25.7758C27.011 25.8534 26.6185 25.9518 26.2392 26.0701L25.4158 25.2303C26.0512 25.0255 26.7201 24.8692 27.4141 24.7673V25.7758Z" fill="#006D5A"/>
<path d="M29.8195 35.7715C29.1059 36.0128 28.3317 36.0104 27.6563 35.8113C26.9815 35.6124 26.4061 35.2169 26.0901 34.672L25.6492 33.9128L25.8485 33.8454C26.3974 33.6598 27.0397 33.8491 27.2828 34.2682C27.4535 34.5617 27.7627 34.775 28.1262 34.8821C28.4902 34.9895 28.9069 34.9902 29.2916 34.8605C29.6757 34.7306 29.9546 34.4939 30.0949 34.2163C30.2353 33.9388 30.2371 33.6203 30.0669 33.327L28.922 31.3531C28.6302 30.8499 28.9279 30.2611 29.5868 30.0383L31.2597 32.9233C31.8923 34.0132 31.2474 35.2886 29.8195 35.7715Z" fill="#006D5A"/>
<path d="M32.562 29.9571L33.0023 30.7162L32.8034 30.7835C32.2543 30.9692 31.612 30.7798 31.3689 30.3605C31.0284 29.7735 30.1292 29.5084 29.3605 29.7684C28.5918 30.0284 28.2446 30.715 28.585 31.302L29.7299 33.2759C30.0217 33.779 29.7241 34.3675 29.0652 34.5904L27.3919 31.7055C26.7597 30.6154 27.4044 29.3402 28.8321 28.8574C30.2598 28.3746 31.9297 28.8669 32.562 29.9571Z" fill="#006D5A"/>
</svg>
